<mxfile host="Electron" agent="Mozilla/5.0 (Windows NT 10.0; Win64; x64) AppleWebKit/537.36 (KHTML, like Gecko) draw.io/24.7.5 Chrome/126.0.6478.183 Electron/31.3.0 Safari/537.36" version="24.7.5" pages="2">
  <diagram name="CLH" id="licIFq5hs5Lv5d0Th4sf">
    <mxGraphModel dx="973" dy="405" grid="1" gridSize="10" guides="1" tooltips="1" connect="1" arrows="1" fold="1" page="1" pageScale="1" pageWidth="827" pageHeight="1169" math="0" shadow="0">
      <root>
        <mxCell id="0" />
        <mxCell id="1" parent="0" />
        <mxCell id="2" value="线程-1" style="rounded=0;whiteSpace=wrap;html=1;fillColor=#dae8fc;strokeColor=#6c8ebf;fontSize=14;" vertex="1" parent="1">
          <mxGeometry x="130" y="250" width="100" height="60" as="geometry" />
        </mxCell>
        <mxCell id="3" value="true" style="rounded=0;whiteSpace=wrap;html=1;fillColor=#dae8fc;strokeColor=#6c8ebf;fontSize=14;" vertex="1" parent="1">
          <mxGeometry x="200" y="250" width="60" height="60" as="geometry" />
        </mxCell>
        <mxCell id="4" value="线程-2" style="rounded=0;whiteSpace=wrap;html=1;fillColor=#d5e8d4;strokeColor=#82b366;fontSize=14;" vertex="1" parent="1">
          <mxGeometry x="390" y="250" width="100" height="60" as="geometry" />
        </mxCell>
        <mxCell id="5" value="true" style="rounded=0;whiteSpace=wrap;html=1;fillColor=#d5e8d4;strokeColor=#82b366;fontSize=14;" vertex="1" parent="1">
          <mxGeometry x="470" y="250" width="60" height="60" as="geometry" />
        </mxCell>
        <mxCell id="6" value="线程-3" style="rounded=0;whiteSpace=wrap;html=1;fillColor=#dae8fc;strokeColor=#6c8ebf;fontSize=14;" vertex="1" parent="1">
          <mxGeometry x="660" y="250" width="100" height="60" as="geometry" />
        </mxCell>
        <mxCell id="7" value="true" style="rounded=0;whiteSpace=wrap;html=1;fillColor=#dae8fc;strokeColor=#6c8ebf;fontSize=14;" vertex="1" parent="1">
          <mxGeometry x="740" y="250" width="60" height="60" as="geometry" />
        </mxCell>
        <mxCell id="8" value="" style="endArrow=classic;html=1;rounded=0;exitX=0;exitY=0.5;exitDx=0;exitDy=0;entryX=1;entryY=0.5;entryDx=0;entryDy=0;strokeWidth=1;" edge="1" parent="1" source="4" target="3">
          <mxGeometry width="50" height="50" relative="1" as="geometry">
            <mxPoint x="380" y="280" as="sourcePoint" />
            <mxPoint x="270" y="280" as="targetPoint" />
          </mxGeometry>
        </mxCell>
        <mxCell id="9" value="" style="endArrow=classic;html=1;rounded=0;exitX=0;exitY=0.5;exitDx=0;exitDy=0;entryX=1;entryY=0.5;entryDx=0;entryDy=0;strokeWidth=1;" edge="1" parent="1" source="6" target="5">
          <mxGeometry width="50" height="50" relative="1" as="geometry">
            <mxPoint x="650" y="280" as="sourcePoint" />
            <mxPoint x="540" y="280" as="targetPoint" />
          </mxGeometry>
        </mxCell>
        <mxCell id="16" value="持有锁" style="text;html=1;strokeColor=none;fillColor=none;align=center;verticalAlign=middle;whiteSpace=wrap;rounded=0;fontSize=14;" vertex="1" parent="1">
          <mxGeometry x="110" y="200" width="60" height="30" as="geometry" />
        </mxCell>
        <mxCell id="18" value="" style="endArrow=classic;html=1;rounded=0;entryX=1;entryY=0.5;entryDx=0;entryDy=0;strokeWidth=1;" edge="1" parent="1" target="7">
          <mxGeometry width="50" height="50" relative="1" as="geometry">
            <mxPoint x="900" y="280" as="sourcePoint" />
            <mxPoint x="810" y="280" as="targetPoint" />
          </mxGeometry>
        </mxCell>
        <mxCell id="19" value="tail" style="text;html=1;strokeColor=none;fillColor=none;align=center;verticalAlign=middle;whiteSpace=wrap;rounded=0;fontSize=14;" vertex="1" parent="1">
          <mxGeometry x="900" y="265" width="40" height="30" as="geometry" />
        </mxCell>
        <mxCell id="20" value="当释放锁时，把 true 改为 false，线程 2 利用 CAS 知晓变更" style="text;html=1;strokeColor=none;fillColor=none;align=center;verticalAlign=middle;whiteSpace=wrap;rounded=0;fontSize=14;fontStyle=0" vertex="1" parent="1">
          <mxGeometry x="120" y="330" width="760" height="30" as="geometry" />
        </mxCell>
        <mxCell id="a1Hz4ko9PHm4NrbtZ5nW-28" value="线程-1" style="rounded=0;whiteSpace=wrap;html=1;fillColor=#dae8fc;strokeColor=#6c8ebf;fontSize=14;" vertex="1" parent="1">
          <mxGeometry x="110" y="250" width="100" height="60" as="geometry" />
        </mxCell>
        <mxCell id="a1Hz4ko9PHm4NrbtZ5nW-33" style="edgeStyle=orthogonalEdgeStyle;rounded=0;orthogonalLoop=1;jettySize=auto;html=1;entryX=0.5;entryY=0;entryDx=0;entryDy=0;fontSize=18;" edge="1" parent="1" source="a1Hz4ko9PHm4NrbtZ5nW-29" target="3">
          <mxGeometry relative="1" as="geometry">
            <Array as="points">
              <mxPoint x="430" y="220" />
              <mxPoint x="230" y="220" />
            </Array>
          </mxGeometry>
        </mxCell>
        <mxCell id="a1Hz4ko9PHm4NrbtZ5nW-35" value="CAS" style="edgeLabel;html=1;align=center;verticalAlign=middle;resizable=0;points=[];fontSize=18;" vertex="1" connectable="0" parent="a1Hz4ko9PHm4NrbtZ5nW-33">
          <mxGeometry x="-0.8526" y="3" relative="1" as="geometry">
            <mxPoint y="-16" as="offset" />
          </mxGeometry>
        </mxCell>
        <mxCell id="a1Hz4ko9PHm4NrbtZ5nW-29" value="线程-2" style="rounded=0;whiteSpace=wrap;html=1;fillColor=#d5e8d4;strokeColor=#82b366;fontSize=14;" vertex="1" parent="1">
          <mxGeometry x="370" y="250" width="100" height="60" as="geometry" />
        </mxCell>
        <mxCell id="a1Hz4ko9PHm4NrbtZ5nW-36" style="edgeStyle=orthogonalEdgeStyle;rounded=0;orthogonalLoop=1;jettySize=auto;html=1;entryX=0.5;entryY=0;entryDx=0;entryDy=0;fontSize=18;" edge="1" parent="1" source="a1Hz4ko9PHm4NrbtZ5nW-30" target="5">
          <mxGeometry relative="1" as="geometry">
            <Array as="points">
              <mxPoint x="680" y="220" />
              <mxPoint x="500" y="220" />
            </Array>
          </mxGeometry>
        </mxCell>
        <mxCell id="a1Hz4ko9PHm4NrbtZ5nW-37" value="CAS" style="edgeLabel;html=1;align=center;verticalAlign=middle;resizable=0;points=[];fontSize=18;" vertex="1" connectable="0" parent="a1Hz4ko9PHm4NrbtZ5nW-36">
          <mxGeometry x="-0.6447" y="-2" relative="1" as="geometry">
            <mxPoint x="13" y="2" as="offset" />
          </mxGeometry>
        </mxCell>
        <mxCell id="a1Hz4ko9PHm4NrbtZ5nW-30" value="线程-3" style="rounded=0;whiteSpace=wrap;html=1;fillColor=#dae8fc;strokeColor=#6c8ebf;fontSize=14;" vertex="1" parent="1">
          <mxGeometry x="640" y="250" width="100" height="60" as="geometry" />
        </mxCell>
        <mxCell id="a1Hz4ko9PHm4NrbtZ5nW-38" value="很多CAS导致总线风暴，演进出一种基于队列的自旋锁即 CLH，它适用于多处理器环境下的高并发场景。&#xa;&#xa;通过隐式队列（没有真正的指针，原理是AtomicRefere+ThreadLocal实现了隐式关联），使线程在等待锁时自旋在本地变量上，从而减少了对共享变量的争用和缓存一致性流量。&#xa;&#xa;它将争抢的线程组织成一个队列，通过排队的方式按序争抢锁。且每个线程不再 CAS 争抢一个变量，而是自旋判断排在它前面线程的状态，如果前面的线程状态为释放锁，那么后续的线程则抢锁。" style="text;whiteSpace=wrap;fontSize=18;" vertex="1" parent="1">
          <mxGeometry x="30" y="20" width="890" height="110" as="geometry" />
        </mxCell>
        <mxCell id="a1Hz4ko9PHm4NrbtZ5nW-40" value="缺点：占用CPU资源：自旋期间线程会一直占用CPU资源，适用于锁等待时间较短的场景。" style="text;html=1;align=center;verticalAlign=middle;resizable=0;points=[];autosize=1;strokeColor=none;fillColor=none;fontSize=18;" vertex="1" parent="1">
          <mxGeometry x="30" y="380" width="750" height="40" as="geometry" />
        </mxCell>
      </root>
    </mxGraphModel>
  </diagram>
  <diagram id="gRVkwplQbYXrOBcfixph" name="AQS">
    <mxGraphModel dx="1320" dy="550" grid="1" gridSize="10" guides="1" tooltips="1" connect="1" arrows="1" fold="1" page="1" pageScale="1" pageWidth="827" pageHeight="1169" math="0" shadow="0">
      <root>
        <mxCell id="0" />
        <mxCell id="1" parent="0" />
        <mxCell id="3nrdS2sD-zeNU_zJJd0f-1" value="CLH有占用CPU资源问题，所以AQS将自旋等待前置节点改成了阻塞线程。&#xa;&#xa;后续的线程阻塞 无法主动 发现前面的线程释放锁，所以前面线程 需要通知后续线程 锁被释放了。&#xa;&#xa;所以AQS的变型版CLH需要显式地维护一个队列，且是一个双向列表实现，因为前面线程需要通知后续线程。" style="text;whiteSpace=wrap;fontSize=18;" vertex="1" parent="1">
          <mxGeometry x="10" y="10" width="760" height="120" as="geometry" />
        </mxCell>
        <mxCell id="jcVgagA7b-DBugqd7d3L-1" value="线程-1" style="rounded=0;whiteSpace=wrap;html=1;fillColor=#dae8fc;strokeColor=#6c8ebf;fontSize=14;" vertex="1" parent="1">
          <mxGeometry x="50" y="280" width="100" height="60" as="geometry" />
        </mxCell>
        <mxCell id="jcVgagA7b-DBugqd7d3L-22" style="edgeStyle=orthogonalEdgeStyle;rounded=0;orthogonalLoop=1;jettySize=auto;html=1;entryX=0;entryY=0.25;entryDx=0;entryDy=0;fontSize=18;" edge="1" parent="1" source="jcVgagA7b-DBugqd7d3L-2" target="jcVgagA7b-DBugqd7d3L-16">
          <mxGeometry relative="1" as="geometry">
            <Array as="points">
              <mxPoint x="220" y="295" />
              <mxPoint x="220" y="295" />
            </Array>
          </mxGeometry>
        </mxCell>
        <mxCell id="jcVgagA7b-DBugqd7d3L-2" value="true" style="rounded=0;whiteSpace=wrap;html=1;fillColor=#dae8fc;strokeColor=#6c8ebf;fontSize=14;" vertex="1" parent="1">
          <mxGeometry x="120" y="280" width="60" height="60" as="geometry" />
        </mxCell>
        <mxCell id="jcVgagA7b-DBugqd7d3L-3" value="线程-2" style="rounded=0;whiteSpace=wrap;html=1;fillColor=#d5e8d4;strokeColor=#82b366;fontSize=14;" vertex="1" parent="1">
          <mxGeometry x="310" y="280" width="100" height="60" as="geometry" />
        </mxCell>
        <mxCell id="jcVgagA7b-DBugqd7d3L-4" value="true" style="rounded=0;whiteSpace=wrap;html=1;fillColor=#d5e8d4;strokeColor=#82b366;fontSize=14;" vertex="1" parent="1">
          <mxGeometry x="390" y="280" width="60" height="60" as="geometry" />
        </mxCell>
        <mxCell id="jcVgagA7b-DBugqd7d3L-5" value="线程-3" style="rounded=0;whiteSpace=wrap;html=1;fillColor=#dae8fc;strokeColor=#6c8ebf;fontSize=14;" vertex="1" parent="1">
          <mxGeometry x="580" y="280" width="100" height="60" as="geometry" />
        </mxCell>
        <mxCell id="jcVgagA7b-DBugqd7d3L-25" style="edgeStyle=orthogonalEdgeStyle;rounded=0;orthogonalLoop=1;jettySize=auto;html=1;fontSize=18;" edge="1" parent="1" source="jcVgagA7b-DBugqd7d3L-6" target="jcVgagA7b-DBugqd7d3L-11">
          <mxGeometry relative="1" as="geometry">
            <Array as="points">
              <mxPoint x="740" y="295" />
              <mxPoint x="740" y="295" />
            </Array>
          </mxGeometry>
        </mxCell>
        <mxCell id="jcVgagA7b-DBugqd7d3L-6" value="true" style="rounded=0;whiteSpace=wrap;html=1;fillColor=#dae8fc;strokeColor=#6c8ebf;fontSize=14;" vertex="1" parent="1">
          <mxGeometry x="660" y="280" width="60" height="60" as="geometry" />
        </mxCell>
        <mxCell id="jcVgagA7b-DBugqd7d3L-7" value="" style="endArrow=classic;html=1;rounded=0;exitX=0;exitY=0.5;exitDx=0;exitDy=0;entryX=1;entryY=0.5;entryDx=0;entryDy=0;strokeWidth=1;" edge="1" parent="1" source="jcVgagA7b-DBugqd7d3L-3" target="jcVgagA7b-DBugqd7d3L-2">
          <mxGeometry width="50" height="50" relative="1" as="geometry">
            <mxPoint x="300" y="310" as="sourcePoint" />
            <mxPoint x="190" y="310" as="targetPoint" />
          </mxGeometry>
        </mxCell>
        <mxCell id="jcVgagA7b-DBugqd7d3L-8" value="" style="endArrow=classic;html=1;rounded=0;exitX=0;exitY=0.5;exitDx=0;exitDy=0;entryX=1;entryY=0.5;entryDx=0;entryDy=0;strokeWidth=1;" edge="1" parent="1" source="jcVgagA7b-DBugqd7d3L-5" target="jcVgagA7b-DBugqd7d3L-4">
          <mxGeometry width="50" height="50" relative="1" as="geometry">
            <mxPoint x="570" y="310" as="sourcePoint" />
            <mxPoint x="460" y="310" as="targetPoint" />
          </mxGeometry>
        </mxCell>
        <mxCell id="jcVgagA7b-DBugqd7d3L-10" value="" style="endArrow=classic;html=1;rounded=0;entryX=1;entryY=0.5;entryDx=0;entryDy=0;strokeWidth=1;exitX=0;exitY=1;exitDx=0;exitDy=0;" edge="1" parent="1" target="jcVgagA7b-DBugqd7d3L-6" source="jcVgagA7b-DBugqd7d3L-11">
          <mxGeometry width="50" height="50" relative="1" as="geometry">
            <mxPoint x="820" y="310" as="sourcePoint" />
            <mxPoint x="730" y="310" as="targetPoint" />
          </mxGeometry>
        </mxCell>
        <mxCell id="jcVgagA7b-DBugqd7d3L-11" value="tail" style="text;html=1;strokeColor=none;fillColor=none;align=center;verticalAlign=middle;whiteSpace=wrap;rounded=0;fontSize=14;" vertex="1" parent="1">
          <mxGeometry x="780" y="280" width="40" height="30" as="geometry" />
        </mxCell>
        <mxCell id="jcVgagA7b-DBugqd7d3L-13" value="线程-1" style="rounded=0;whiteSpace=wrap;html=1;fillColor=#dae8fc;strokeColor=#6c8ebf;fontSize=14;" vertex="1" parent="1">
          <mxGeometry x="30" y="280" width="100" height="60" as="geometry" />
        </mxCell>
        <mxCell id="jcVgagA7b-DBugqd7d3L-16" value="线程-2" style="rounded=0;whiteSpace=wrap;html=1;fillColor=#d5e8d4;strokeColor=#82b366;fontSize=14;" vertex="1" parent="1">
          <mxGeometry x="290" y="280" width="100" height="60" as="geometry" />
        </mxCell>
        <mxCell id="jcVgagA7b-DBugqd7d3L-19" value="线程-3" style="rounded=0;whiteSpace=wrap;html=1;fillColor=#dae8fc;strokeColor=#6c8ebf;fontSize=14;" vertex="1" parent="1">
          <mxGeometry x="560" y="280" width="100" height="60" as="geometry" />
        </mxCell>
        <mxCell id="jcVgagA7b-DBugqd7d3L-20" value="阻塞等待" style="text;whiteSpace=wrap;fontSize=18;" vertex="1" parent="1">
          <mxGeometry x="304" y="230" width="110" height="50" as="geometry" />
        </mxCell>
        <mxCell id="jcVgagA7b-DBugqd7d3L-21" value="持有锁" style="text;whiteSpace=wrap;fontSize=18;" vertex="1" parent="1">
          <mxGeometry x="35" y="230" width="90" height="50" as="geometry" />
        </mxCell>
        <mxCell id="jcVgagA7b-DBugqd7d3L-23" style="edgeStyle=orthogonalEdgeStyle;rounded=0;orthogonalLoop=1;jettySize=auto;html=1;entryX=0;entryY=0.25;entryDx=0;entryDy=0;fontSize=18;" edge="1" parent="1">
          <mxGeometry relative="1" as="geometry">
            <mxPoint x="450" y="295" as="sourcePoint" />
            <mxPoint x="560" y="295" as="targetPoint" />
            <Array as="points">
              <mxPoint x="490" y="295" />
              <mxPoint x="490" y="295" />
            </Array>
          </mxGeometry>
        </mxCell>
        <mxCell id="jcVgagA7b-DBugqd7d3L-24" value="阻塞等待" style="text;whiteSpace=wrap;fontSize=18;" vertex="1" parent="1">
          <mxGeometry x="570" y="240" width="110" height="50" as="geometry" />
        </mxCell>
        <mxCell id="opOAV8bEj9hDS9Sm81Si-1" value="如果线程2阻塞等待超时了，他将会从队列中移除掉" style="text;html=1;align=center;verticalAlign=middle;resizable=0;points=[];autosize=1;strokeColor=none;fillColor=none;fontSize=18;" vertex="1" parent="1">
          <mxGeometry y="363" width="430" height="40" as="geometry" />
        </mxCell>
        <mxCell id="opOAV8bEj9hDS9Sm81Si-2" value="线程-1" style="rounded=0;whiteSpace=wrap;html=1;fillColor=#dae8fc;strokeColor=#6c8ebf;fontSize=14;" vertex="1" parent="1">
          <mxGeometry x="57" y="470" width="100" height="60" as="geometry" />
        </mxCell>
        <mxCell id="opOAV8bEj9hDS9Sm81Si-3" style="edgeStyle=orthogonalEdgeStyle;rounded=0;orthogonalLoop=1;jettySize=auto;html=1;entryX=0;entryY=0.25;entryDx=0;entryDy=0;fontSize=18;" edge="1" parent="1" source="opOAV8bEj9hDS9Sm81Si-4">
          <mxGeometry relative="1" as="geometry">
            <Array as="points">
              <mxPoint x="227" y="485" />
              <mxPoint x="227" y="485" />
            </Array>
            <mxPoint x="297" y="485" as="targetPoint" />
          </mxGeometry>
        </mxCell>
        <mxCell id="opOAV8bEj9hDS9Sm81Si-4" value="true" style="rounded=0;whiteSpace=wrap;html=1;fillColor=#dae8fc;strokeColor=#6c8ebf;fontSize=14;" vertex="1" parent="1">
          <mxGeometry x="127" y="470" width="60" height="60" as="geometry" />
        </mxCell>
        <mxCell id="opOAV8bEj9hDS9Sm81Si-7" value="线程-3" style="rounded=0;whiteSpace=wrap;html=1;fillColor=#dae8fc;strokeColor=#6c8ebf;fontSize=14;" vertex="1" parent="1">
          <mxGeometry x="317" y="470" width="100" height="60" as="geometry" />
        </mxCell>
        <mxCell id="opOAV8bEj9hDS9Sm81Si-8" style="edgeStyle=orthogonalEdgeStyle;rounded=0;orthogonalLoop=1;jettySize=auto;html=1;fontSize=18;" edge="1" parent="1" source="opOAV8bEj9hDS9Sm81Si-9" target="opOAV8bEj9hDS9Sm81Si-13">
          <mxGeometry relative="1" as="geometry">
            <Array as="points">
              <mxPoint x="477" y="485" />
              <mxPoint x="477" y="485" />
            </Array>
          </mxGeometry>
        </mxCell>
        <mxCell id="opOAV8bEj9hDS9Sm81Si-9" value="true" style="rounded=0;whiteSpace=wrap;html=1;fillColor=#dae8fc;strokeColor=#6c8ebf;fontSize=14;" vertex="1" parent="1">
          <mxGeometry x="397" y="470" width="60" height="60" as="geometry" />
        </mxCell>
        <mxCell id="opOAV8bEj9hDS9Sm81Si-10" value="" style="endArrow=classic;html=1;rounded=0;exitX=0;exitY=0.5;exitDx=0;exitDy=0;entryX=1;entryY=0.5;entryDx=0;entryDy=0;strokeWidth=1;" edge="1" parent="1" target="opOAV8bEj9hDS9Sm81Si-4">
          <mxGeometry width="50" height="50" relative="1" as="geometry">
            <mxPoint x="317" y="500" as="sourcePoint" />
            <mxPoint x="197" y="500" as="targetPoint" />
          </mxGeometry>
        </mxCell>
        <mxCell id="opOAV8bEj9hDS9Sm81Si-12" value="" style="endArrow=classic;html=1;rounded=0;entryX=1;entryY=0.5;entryDx=0;entryDy=0;strokeWidth=1;exitX=0;exitY=1;exitDx=0;exitDy=0;" edge="1" parent="1" source="opOAV8bEj9hDS9Sm81Si-13" target="opOAV8bEj9hDS9Sm81Si-9">
          <mxGeometry width="50" height="50" relative="1" as="geometry">
            <mxPoint x="557" y="500" as="sourcePoint" />
            <mxPoint x="467" y="500" as="targetPoint" />
          </mxGeometry>
        </mxCell>
        <mxCell id="opOAV8bEj9hDS9Sm81Si-13" value="tail" style="text;html=1;strokeColor=none;fillColor=none;align=center;verticalAlign=middle;whiteSpace=wrap;rounded=0;fontSize=14;" vertex="1" parent="1">
          <mxGeometry x="517" y="470" width="40" height="30" as="geometry" />
        </mxCell>
        <mxCell id="opOAV8bEj9hDS9Sm81Si-14" value="线程-1" style="rounded=0;whiteSpace=wrap;html=1;fillColor=#dae8fc;strokeColor=#6c8ebf;fontSize=14;" vertex="1" parent="1">
          <mxGeometry x="37" y="470" width="100" height="60" as="geometry" />
        </mxCell>
        <mxCell id="opOAV8bEj9hDS9Sm81Si-16" value="线程-3" style="rounded=0;whiteSpace=wrap;html=1;fillColor=#dae8fc;strokeColor=#6c8ebf;fontSize=14;" vertex="1" parent="1">
          <mxGeometry x="297" y="470" width="100" height="60" as="geometry" />
        </mxCell>
        <mxCell id="opOAV8bEj9hDS9Sm81Si-18" value="持有锁" style="text;whiteSpace=wrap;fontSize=18;" vertex="1" parent="1">
          <mxGeometry x="42" y="420" width="90" height="50" as="geometry" />
        </mxCell>
        <mxCell id="opOAV8bEj9hDS9Sm81Si-20" value="阻塞等待" style="text;whiteSpace=wrap;fontSize=18;" vertex="1" parent="1">
          <mxGeometry x="307" y="430" width="110" height="50" as="geometry" />
        </mxCell>
        <mxCell id="opOAV8bEj9hDS9Sm81Si-21" value="在 AQS 中，线程的等待状态有以下几种：&#xa;• 0：初始化的时候的默认值&#xa;• CANCELLED（值为 1）：由于超时、中断或其他原因，该节点被取消&#xa;• SIGNAL（值为 -1）：表示该节点准备就绪，正常等待资源&#xa;• CONDITION（值为 -2）：表示该节点位于条件等待队列中&#xa;• PROPAGATE（值为 -3）：当处在 SHARED 情况下，该字段才有用，将 releaseShared 动作需要传播到其他节点" style="text;whiteSpace=wrap;fontSize=18;" vertex="1" parent="1">
          <mxGeometry y="560" width="800" height="170" as="geometry" />
        </mxCell>
      </root>
    </mxGraphModel>
  </diagram>
</mxfile>
